<svg xmlns="http://www.w3.org/2000/svg" width="256" height="256" viewBox="0 0 256 256">
<defs><linearGradient id="tile" x1="32" y1="8" x2="224" y2="248" gradientUnits="userSpaceOnUse"><stop stop-color="#FEFEFD"/><stop offset="1" stop-color="#E5F0FA"/></linearGradient>
<linearGradient id="fade" x1="30" y1="0" x2="158" y2="0" gradientUnits="userSpaceOnUse"><stop stop-color="#22BFC0"/><stop offset=".5" stop-color="#1CA3C2"/><stop offset=".78" stop-color="#1A8FC0" stop-opacity=".55"/><stop offset="1" stop-color="#1A86C0" stop-opacity=".08"/></linearGradient>
<radialGradient id="halo"><stop offset="0" stop-color="#4FD2F2" stop-opacity=".55"/><stop offset=".55" stop-color="#4FD2F2" stop-opacity=".18"/><stop offset="1" stop-color="#4FD2F2" stop-opacity="0"/></radialGradient><radialGradient id="wglow"><stop offset="0" stop-color="#FFFFFF"/><stop offset=".28" stop-color="#F4FCFF"/><stop offset=".42" stop-color="#9EDCF2" stop-opacity=".75"/><stop offset=".7" stop-color="#6CC6EA" stop-opacity=".28"/><stop offset="1" stop-color="#6CC6EA" stop-opacity="0"/></radialGradient></defs>
<rect x="8" y="8" width="240" height="240" rx="52" fill="url(#tile)" stroke="#91ABC9" stroke-opacity=".7" stroke-width="2"/><g transform="translate(16 -12)" fill="none" stroke-linecap="round" stroke-linejoin="round"><path d="M30 170 C35.04 170 38.96 110 44 110 C49.04 110 52.96 166 58 166 C63.04 166 66.96 119 72 119 C77.04 119 80.96 156 86 156 C91.04 156 94.96 128 100 128 C105.04 128 108.96 148 114 148 C118.32 148 121.68 134 126 134 C130.32 134 133.68 144 138 144 C141.6 144 144.4 138 148 138 C151.6 138 154.4 140 158 140" stroke="url(#fade)" stroke-width="8.5"/><circle cx="176" cy="140" r="24" fill="url(#wglow)"/><circle cx="176" cy="140" r="7" fill="#FFFFFF" stroke="#8FD3EE" stroke-width="1.5"/></g></svg>